0
SECTION
2
HEADER
9
$INSUNITS
70
4
9
$ACADVER
1
AC1014
9
$HANDSEED
5
FFFF
0
ENDSEC
0
SECTION
2
TABLES
0
TABLE
2
VPORT
5
8
100
AcDbSymbolTable
0
ENDTAB
0
TABLE
2
LTYPE
5
5
100
AcDbSymbolTable
0
LTYPE
5
14
100
AcDbSymbolTableRecord
100
AcDbLinetypeTableRecord
2
BYBLOCK
70
0
0
LTYPE
5
15
100
AcDbSymbolTableRecord
100
AcDbLinetypeTableRecord
2
BYLAYER
70
0
0
ENDTAB
0
TABLE
2
LAYER
5
2
100
AcDbSymbolTable
70
2
0
LAYER
5
50
100
AcDbSymbolTableRecord
100
AcDbLayerTableRecord
2
0
70
0
6
CONTINUOUS
0
ENDTAB
0
TABLE
2
STYLE
5
3
100
AcDbSymbolTable
70
1
0
STYLE
5
11
100
AcDbSymbolTableRecord
100
AcDbTextStyleTableRecord
2
STANDARD
70
0
0
ENDTAB
0
TABLE
2
VIEW
5
6
100
AcDbSymbolTable
70
0
0
ENDTAB
0
TABLE
2
UCS
5
7
100
AcDbSymbolTable
70
0
0
ENDTAB
0
TABLE
2
APPID
5
9
100
AcDbSymbolTable
70
2
0
APPID
5
12
100
AcDbSymbolTableRecord
100
AcDbRegAppTableRecord
2
ACAD
70
0
0
ENDTAB
0
TABLE
2
DIMSTYLE
5
A
100
AcDbSymbolTable
70
1
0
ENDTAB
0
TABLE
2
BLOCK_RECORD
5
1
100
AcDbSymbolTable
70
1
0
BLOCK_RECORD
5
1F
100
AcDbSymbolTableRecord
100
AcDbBlockTableRecord
2
*MODEL_SPACE
0
BLOCK_RECORD
5
1B
100
AcDbSymbolTableRecord
100
AcDbBlockTableRecord
2
*PAPER_SPACE
0
ENDTAB
0
ENDSEC
0
SECTION
2
BLOCKS
0
BLOCK
5
20
100
AcDbEntity
100
AcDbBlockBegin
2
*MODEL_SPACE
0
ENDBLK
5
21
100
AcDbEntity
100
AcDbBlockEnd
0
BLOCK
5
1C
100
AcDbEntity
100
AcDbBlockBegin
2
*PAPER_SPACE
0
ENDBLK
5
1D
100
AcDbEntity
100
AcDbBlockEnd
0
ENDSEC
0
SECTION
2
ENTITIES
0
LWPOLYLINE
5
100
100
AcDbEntity
8
0
100
AcDbPolyline
90
8
70
1
43
0.0
10
31.491693014766579
20
-42.393856989749011
10
31.491693014766579
20
42.393856989749011
42
-0.24781869397143019
10
32.189456740224792
20
43.715208458852146
10
36.189456740224784
20
46.446461408997777
42
-0.60279695252409504
10
38.691693014766578
20
45.125109939894664
10
38.691693014766585
20
-45.125109939894649
42
-0.60279695252409315
10
36.189456740224792
20
-46.446461408997749
10
32.189456740224792
20
-43.715208458852132
42
-0.24781869397142725
0
LWPOLYLINE
5
101
100
AcDbEntity
8
0
100
AcDbPolyline
90
8
70
1
43
0.0
10
-32.189456740226809
20
-43.715208458852111
10
-36.189456740226824
20
-46.44646140899777
42
-0.60279695252409238
10
-38.691693014768603
20
-45.125109939894649
10
-38.691693014768603
20
45.125109939894664
42
-0.60279695252409393
10
-36.189456740226817
20
46.44646140899777
10
-32.189456740226817
20
43.715208458852132
42
-0.24781869397142725
10
-31.4916930147686
20
42.393856989749011
10
-31.4916930147686
20
-42.393856989748997
42
-0.24781869397142667
0
LWPOLYLINE
5
102
100
AcDbEntity
8
0
100
AcDbPolyline
90
48
70
1
43
0.0
10
50.000000000000746
20
-47.299725179247574
10
50.000000000000711
20
47.299725179247567
42
-0.24781869397142597
10
63.083069852342078
20
72.075065224930881
10
73.410548337600034
20
79.126804245037491
42
0.19891236737965839
10
76.76093682536407
20
84.251765609689954
10
77.628952814283721
20
88.856966612411469
42
0.19891236737965892
10
76.374140299326228
20
94.849943965983584
10
67.141678866589785
20
108.37115434269948
42
0.19891236737965831
10
62.016717501937322
20
111.72154283046352
10
57.411516499215757
20
112.58955881938314
42
0.19891236737965742
10
51.418539145643678
20
111.33474630442564
10
32.427007686409191
20
98.367077222970892
42
-0.1509045380825805
10
15.510077538750423
20
93.142417268654071
10
-15.510077538750418
20
93.142417268654071
42
-0.1509045380825805
10
-32.427007686409191
20
98.367077222970863
10
-51.418539145643685
20
111.33474630442562
42
0.19891236737965753
10
-57.411516499215757
20
112.58955881938314
10
-62.016717501937322
20
111.72154283046351
42
0.19891236737965809
10
-67.141678866589771
20
108.37115434269948
10
-76.374140299326228
20
94.849943965983584
42
0.19891236737965892
10
-77.628952814283736
20
88.856966612411469
10
-76.76093682536407
20
84.251765609689954
42
0.19891236737965856
10
-73.410548337600005
20
79.126804245037533
10
-63.083069852342071
20
72.075065224930881
42
-0.24781869397142584
10
-50.000000000000718
20
47.299725179247574
10
-50.000000000000711
20
-47.299725179247567
42
-0.24781869397142597
10
-63.083069852342078
20
-72.075065224930881
10
-73.410548337600034
20
-79.126804245037491
42
0.19891236737965839
10
-76.76093682536407
20
-84.251765609689954
10
-77.628952814283721
20
-88.856966612411469
42
0.19891236737965892
10
-76.374140299326228
20
-94.849943965983584
10
-67.141678866589785
20
-108.37115434269948
42
0.19891236737965831
10
-62.016717501937322
20
-111.72154283046352
10
-57.411516499215757
20
-112.58955881938314
42
0.19891236737965742
10
-51.418539145643678
20
-111.33474630442564
10
-32.427007686409191
20
-98.367077222970892
42
-0.1509045380825805
10
-15.510077538750423
20
-93.142417268654071
10
15.510077538750412
20
-93.142417268654071
42
-0.1509045380825805
10
32.427007686409191
20
-98.367077222970863
10
51.418539145643685
20
-111.33474630442562
42
0.19891236737965753
10
57.411516499215757
20
-112.58955881938314
10
62.016717501937322
20
-111.72154283046351
42
0.19891236737965809
10
67.141678866589771
20
-108.37115434269948
10
76.374140299326228
20
-94.849943965983584
42
0.19891236737965892
10
77.628952814283736
20
-88.856966612411469
10
76.76093682536407
20
-84.251765609689954
42
0.19891236737965856
10
73.410548337600005
20
-79.126804245037533
10
63.083069852342099
20
-72.075065224930853
42
-0.24781869397142597
0
CIRCLE
5
103
100
AcDbEntity
8
0
100
AcDbCircle
10
-1.215958550779934e-16
20
-58.142417268654079
30
1.0547118733938987e-14
40
3.2500000000000009
210
-5.4834928905550202e-17
220
0
230
1
0
CIRCLE
5
104
100
AcDbEntity
8
0
100
AcDbCircle
10
-14.999999999999998
20
-15.000000000000002
30
4.4408920985006262e-15
40
1.7499999999999982
210
-8.6555586751983232e-17
220
0
230
1
0
CIRCLE
5
105
100
AcDbEntity
8
0
100
AcDbCircle
10
14.999999999999998
20
-15.000000000000002
30
6.106226635438361e-15
40
1.7500000000000004
210
-8.6555586751983331e-17
220
0
230
1
0
CIRCLE
5
106
100
AcDbEntity
8
0
100
AcDbCircle
10
-14.999999999999998
20
15.000000000000002
30
1.1102230246251565e-15
40
1.7500000000000004
210
-8.6555586751983331e-17
220
0
230
1
0
CIRCLE
5
107
100
AcDbEntity
8
0
100
AcDbCircle
10
14.999999999999998
20
15.000000000000002
30
2.7755575615628914e-15
40
1.7500000000000004
210
-8.6555586751983331e-17
220
0
230
1
0
CIRCLE
5
108
100
AcDbEntity
8
0
100
AcDbCircle
10
45.066346272193378
20
-98.521214682286384
30
5.5511151231257827e-15
40
1.7499999999999982
210
2.1395590863527732e-16
220
2.2204460492503165e-16
230
1
0
CIRCLE
5
109
100
AcDbEntity
8
0
100
AcDbCircle
10
46.776118039067356
20
-69.416632903721052
30
2.2204460492503131e-15
40
1.7499999999999982
210
2.1395590863527732e-16
220
2.2204460492503165e-16
230
1
0
CIRCLE
5
110
100
AcDbEntity
8
0
100
AcDbCircle
10
57.454016295034982
20
-106.97967975611576
30
3.8857805861880479e-15
40
1.7499999999999893
210
2.1395590863527712e-16
220
2.2204460492503165e-16
230
1
0
CIRCLE
5
111
100
AcDbEntity
8
0
100
AcDbCircle
10
32.678676249351767
20
-90.062749608457011
30
1.4432899320127035e-14
40
1.7500000000000027
210
-1.977525444370334e-17
220
2.2204460492503165e-16
230
1
0
CIRCLE
5
112
100
AcDbEntity
8
0
100
AcDbCircle
10
59.163788061908974
20
-77.875097977550411
30
0
40
1.7499999999999982
210
2.1395590863527732e-16
220
2.2204460492503165e-16
230
1
0
CIRCLE
5
113
100
AcDbEntity
8
0
100
AcDbCircle
10
71.365245974099864
20
-86.606276145406156
30
-1.1102230246251565e-15
40
1.7499999999999982
210
2.1395590863527732e-16
220
2.2204460492503165e-16
230
1
0
CIRCLE
5
114
100
AcDbEntity
8
0
100
AcDbCircle
10
-71.365245974099864
20
-86.606276145406156
30
-2.7755575615628914e-15
40
1.7499999999999982
210
-2.3480792447636472e-16
220
2.2204460492503165e-16
230
1
0
CIRCLE
5
115
100
AcDbEntity
8
0
100
AcDbCircle
10
-59.163788061908974
20
-77.875097977550411
30
-5.5511151231257827e-16
40
1.7499999999999982
210
-2.3480792447636472e-16
220
2.2204460492503165e-16
230
1
0
CIRCLE
5
116
100
AcDbEntity
8
0
100
AcDbCircle
10
-32.678676249351767
20
-90.062749608457011
30
1.3877787807814457e-14
40
1.7500000000000027
210
-1.076761397384659e-18
220
2.2204460492503165e-16
230
1
0
CIRCLE
5
117
100
AcDbEntity
8
0
100
AcDbCircle
10
-57.454016295034982
20
-106.97967975611576
30
2.7755575615628914e-15
40
1.7499999999999893
210
-2.3480792447636502e-16
220
2.2204460492503165e-16
230
1
0
CIRCLE
5
118
100
AcDbEntity
8
0
100
AcDbCircle
10
-46.776118039067356
20
-69.416632903721052
30
5.5511151231257827e-16
40
1.7499999999999982
210
-2.3480792447636472e-16
220
2.2204460492503165e-16
230
1
0
CIRCLE
5
119
100
AcDbEntity
8
0
100
AcDbCircle
10
-45.066346272193378
20
-98.521214682286384
30
4.9960036108132044e-15
40
1.7499999999999982
210
-2.3480792447636472e-16
220
2.2204460492503165e-16
230
1
0
CIRCLE
5
120
100
AcDbEntity
8
0
100
AcDbCircle
10
-45.066346272193378
20
98.521214682286384
30
-1.6653345369377348e-14
40
1.7499999999999982
210
-2.3480792447636472e-16
220
0
230
1
0
CIRCLE
5
121
100
AcDbEntity
8
0
100
AcDbCircle
10
-46.776118039067356
20
69.416632903721052
30
-1.4988010832439613e-14
40
1.7499999999999982
210
-2.3480792447636472e-16
220
0
230
1
0
CIRCLE
5
122
100
AcDbEntity
8
0
100
AcDbCircle
10
-57.454016295034982
20
106.97967975611576
30
-2.1094237467877974e-14
40
1.7499999999999893
210
-2.3480792447636502e-16
220
0
230
1
0
CIRCLE
5
123
100
AcDbEntity
8
0
100
AcDbCircle
10
-32.678676249351767
20
90.062749608457011
30
-6.106226635438361e-15
40
1.7500000000000027
210
-1.076761397384659e-18
220
0
230
1
0
CIRCLE
5
124
100
AcDbEntity
8
0
100
AcDbCircle
10
-59.163788061908974
20
77.875097977550411
30
-1.7763568394002505e-14
40
1.7499999999999982
210
-2.3480792447636472e-16
220
0
230
1
0
CIRCLE
5
125
100
AcDbEntity
8
0
100
AcDbCircle
10
-71.365245974099864
20
86.606276145406156
30
-2.2204460492503131e-14
40
1.7499999999999982
210
-2.3480792447636472e-16
220
0
230
1
0
CIRCLE
5
126
100
AcDbEntity
8
0
100
AcDbCircle
10
71.365245974099864
20
86.606276145406156
30
-2.0539125955565396e-14
40
1.7499999999999982
210
2.1395590863527732e-16
220
0
230
1
0
CIRCLE
5
127
100
AcDbEntity
8
0
100
AcDbCircle
10
59.163788061908974
20
77.875097977550411
30
-1.7208456881689926e-14
40
1.7499999999999982
210
2.1395590863527732e-16
220
0
230
1
0
CIRCLE
5
128
100
AcDbEntity
8
0
100
AcDbCircle
10
32.678676249351767
20
90.062749608457011
30
-5.5511151231257827e-15
40
1.7500000000000027
210
-1.977525444370334e-17
220
0
230
1
0
CIRCLE
5
129
100
AcDbEntity
8
0
100
AcDbCircle
10
57.454016295034982
20
106.97967975611576
30
-1.9984014443252818e-14
40
1.7499999999999893
210
2.1395590863527712e-16
220
0
230
1
0
CIRCLE
5
130
100
AcDbEntity
8
0
100
AcDbCircle
10
46.776118039067356
20
69.416632903721052
30
-1.3322676295501878e-14
40
1.7499999999999982
210
2.1395590863527732e-16
220
0
230
1
0
CIRCLE
5
131
100
AcDbEntity
8
0
100
AcDbCircle
10
45.066346272193378
20
98.521214682286384
30
-1.609823385706477e-14
40
1.7499999999999982
210
2.1395590863527732e-16
220
0
230
1
0
ENDSEC
0
SECTION
2
OBJECTS
0
DICTIONARY
5
C
100
AcDbDictionary
3
ACAD_GROUP
350
D
3
ACAD_MLINESTYLE
350
17
0
DICTIONARY
5
D
100
AcDbDictionary
0
DICTIONARY
5
1A
330
C
100
AcDbDictionary
0
DICTIONARY
5
17
100
AcDbDictionary
0
ENDSEC
0
EOF
