0
SECTION
2
HEADER
9
$INSUNITS
70
4
9
$ACADVER
1
AC1014
9
$HANDSEED
5
FFFF
0
ENDSEC
0
SECTION
2
TABLES
0
TABLE
2
VPORT
5
8
100
AcDbSymbolTable
0
ENDTAB
0
TABLE
2
LTYPE
5
5
100
AcDbSymbolTable
0
LTYPE
5
14
100
AcDbSymbolTableRecord
100
AcDbLinetypeTableRecord
2
BYBLOCK
70
0
0
LTYPE
5
15
100
AcDbSymbolTableRecord
100
AcDbLinetypeTableRecord
2
BYLAYER
70
0
0
ENDTAB
0
TABLE
2
LAYER
5
2
100
AcDbSymbolTable
70
2
0
LAYER
5
50
100
AcDbSymbolTableRecord
100
AcDbLayerTableRecord
2
0
70
0
6
CONTINUOUS
0
ENDTAB
0
TABLE
2
STYLE
5
3
100
AcDbSymbolTable
70
1
0
STYLE
5
11
100
AcDbSymbolTableRecord
100
AcDbTextStyleTableRecord
2
STANDARD
70
0
0
ENDTAB
0
TABLE
2
VIEW
5
6
100
AcDbSymbolTable
70
0
0
ENDTAB
0
TABLE
2
UCS
5
7
100
AcDbSymbolTable
70
0
0
ENDTAB
0
TABLE
2
APPID
5
9
100
AcDbSymbolTable
70
2
0
APPID
5
12
100
AcDbSymbolTableRecord
100
AcDbRegAppTableRecord
2
ACAD
70
0
0
ENDTAB
0
TABLE
2
DIMSTYLE
5
A
100
AcDbSymbolTable
70
1
0
ENDTAB
0
TABLE
2
BLOCK_RECORD
5
1
100
AcDbSymbolTable
70
1
0
BLOCK_RECORD
5
1F
100
AcDbSymbolTableRecord
100
AcDbBlockTableRecord
2
*MODEL_SPACE
0
BLOCK_RECORD
5
1B
100
AcDbSymbolTableRecord
100
AcDbBlockTableRecord
2
*PAPER_SPACE
0
ENDTAB
0
ENDSEC
0
SECTION
2
BLOCKS
0
BLOCK
5
20
100
AcDbEntity
100
AcDbBlockBegin
2
*MODEL_SPACE
0
ENDBLK
5
21
100
AcDbEntity
100
AcDbBlockEnd
0
BLOCK
5
1C
100
AcDbEntity
100
AcDbBlockBegin
2
*PAPER_SPACE
0
ENDBLK
5
1D
100
AcDbEntity
100
AcDbBlockEnd
0
ENDSEC
0
SECTION
2
ENTITIES
0
LWPOLYLINE
5
100
100
AcDbEntity
8
0
100
AcDbPolyline
90
66
70
1
43
0.0
10
16.383842081315048
20
-92.866598927931705
42
0.13260286360035548
10
17.371508959081361
20
-93.200221740146077
42
-0.13506500079957903
10
32.427007686409162
20
-98.367077222970863
10
51.418539145643663
20
-111.33474630442562
42
0.19891236737965753
10
57.411516499215736
20
-112.58955881938314
10
62.016717501937308
20
-111.72154283046351
42
0.19891236737965809
10
67.141678866589757
20
-108.37115434269948
10
76.374140299326214
20
-94.849943965983584
42
0.19891236737965892
10
77.628952814283721
20
-88.856966612411469
10
76.760936825364055
20
-84.251765609689954
42
0.19891236737965856
10
73.410548337599991
20
-79.126804245037533
10
63.083069852342049
20
-72.075065224930881
42
-0.24781869397142584
10
50.000000000000703
20
-47.299725179247574
10
50.000000000000696
20
47.299725179247567
42
-0.24781869397142597
10
63.083069852342064
20
72.075065224930881
10
73.410548337600019
20
79.126804245037491
42
0.19891236737965839
10
76.760936825364055
20
84.251765609689954
10
77.628952814283707
20
88.856966612411469
42
0.19891236737965892
10
76.374140299326214
20
94.849943965983584
10
67.141678866589757
20
108.37115434269948
42
0.19891236737965831
10
62.016717501937308
20
111.72154283046352
10
57.411516499215736
20
112.58955881938314
42
0.19891236737965742
10
51.418539145643656
20
111.33474630442564
10
32.427007686409169
20
98.367077222970892
42
-0.1509045380825805
10
15.510077538750405
20
93.142417268654071
10
-15.510077538750441
20
93.142417268654071
42
-0.1509045380825805
10
-32.427007686409212
20
98.367077222970863
10
-51.418539145643706
20
111.33474630442562
42
0.19891236737965753
10
-57.411516499215772
20
112.58955881938314
10
-62.016717501937336
20
111.72154283046351
42
0.19891236737965809
10
-67.141678866589785
20
108.37115434269948
10
-76.374140299326257
20
94.849943965983584
42
0.19891236737965892
10
-77.62895281428375
20
88.856966612411469
10
-76.760936825364084
20
84.251765609689954
42
0.19891236737965856
10
-73.410548337600019
20
79.126804245037533
10
-63.083069852342092
20
72.075065224930881
42
-0.24781869397142584
10
-50.000000000000739
20
47.299725179247574
10
-50.000000000000725
20
-47.299725179247567
42
-0.24781869397142597
10
-63.083069852342099
20
-72.075065224930881
10
-73.410548337600062
20
-79.126804245037491
42
0.19891236737965839
10
-76.760936825364084
20
-84.251765609689954
10
-77.628952814283736
20
-88.856966612411469
42
0.19891236737965892
10
-76.374140299326257
20
-94.849943965983584
10
-67.1416788665898
20
-108.37115434269948
42
0.19891236737965831
10
-62.016717501937336
20
-111.72154283046352
10
-57.411516499215772
20
-112.58955881938314
42
0.19891236737965742
10
-51.418539145643692
20
-111.33474630442564
10
-32.427007686409219
20
-98.367077222970863
42
-0.13506500079957959
10
-17.371508959081353
20
-93.200221740146077
42
0.13260286360035536
10
-16.383842081315034
20
-92.866598927931705
42
-0.044685793790606665
10
-16.070762387504725
20
-92.695517814426879
42
0.40411479029801373
10
-15.185309670098039
20
-90.553010674270681
42
-0.094327333368525182
10
-15.500000000000025
20
-88.899776581534852
10
-15.500000000000025
20
-86.071356933787968
42
-0.16829911735576425
10
-14.750000000000023
20
-83.906293424326876
42
0.16829911735576514
10
-13.999999999999984
20
-81.74122991486577
10
-13.999999999999984
20
-70.142417268654086
42
-0.41421356237309503
10
-11.499999999999975
20
-67.642417268654086
10
11.499999999999988
20
-67.642417268654071
42
-0.41421356237309398
10
13.999999999999986
20
-70.142417268654086
10
13.999999999999986
20
-81.74122991486577
42
0.16829911735576492
10
14.750000000000023
20
-83.906293424326876
42
-0.16829911735576447
10
15.500000000000025
20
-86.071356933787968
10
15.500000000000025
20
-88.899776581534852
42
-0.094327333368524058
10
15.185309670098047
20
-90.553010674270666
42
0.40411479029801084
10
16.070762387504729
20
-92.695517814426864
42
-0.044685793790608552
0
LWPOLYLINE
5
101
100
AcDbEntity
8
0
100
AcDbPolyline
90
8
70
1
43
0.0
10
-32.189456740226817
20
-43.715208458852111
10
-36.189456740226824
20
-46.44646140899777
42
-0.60279695252409315
10
-38.69169301476861
20
-45.125109939894649
10
-38.69169301476861
20
45.125109939894664
42
-0.60279695252409393
10
-36.189456740226817
20
46.44646140899777
10
-32.189456740226817
20
43.715208458852132
42
-0.24781869397142725
10
-31.491693014768604
20
42.393856989749011
10
-31.491693014768604
20
-42.393856989748997
42
-0.24781869397142667
0
LWPOLYLINE
5
102
100
AcDbEntity
8
0
100
AcDbPolyline
90
8
70
1
43
0.0
10
31.491693014766575
20
-42.393856989749011
10
31.491693014766575
20
42.393856989749011
42
-0.24781869397143019
10
32.189456740224792
20
43.715208458852146
10
36.189456740224784
20
46.446461408997777
42
-0.6027969525240946
10
38.691693014766571
20
45.125109939894664
10
38.691693014766578
20
-45.125109939894649
42
-0.60279695252409315
10
36.189456740224784
20
-46.446461408997749
10
32.189456740224792
20
-43.715208458852132
42
-0.24781869397142725
0
LWPOLYLINE
5
103
100
AcDbEntity
8
0
100
AcDbPolyline
90
8
70
1
43
0.0
10
-10.00000000000002
20
84.392417268654071
10
9.999999999999984
20
84.392417268654071
42
-0.41421356237309503
10
13.999999999999984
20
80.392417268654071
10
13.999999999999988
20
60.392417268654071
42
-0.41421356237309503
10
9.999999999999984
20
56.392417268654071
10
-10.00000000000002
20
56.392417268654071
42
-0.41421356237309503
10
-14.000000000000021
20
60.392417268654071
10
-14.000000000000023
20
80.392417268654071
42
-0.41421356237309503
0
CIRCLE
5
104
100
AcDbEntity
8
0
100
AcDbCircle
10
46.776118039067342
20
-69.416632903721052
30
4.4408920985006262e-15
40
1.7499999999999982
210
2.1395590863527732e-16
220
2.2204460492503165e-16
230
1
0
CIRCLE
5
105
100
AcDbEntity
8
0
100
AcDbCircle
10
57.454016295034968
20
-106.97967975611576
30
4.4408920985006262e-15
40
1.7499999999999893
210
2.1395590863527712e-16
220
2.2204460492503165e-16
230
1
0
CIRCLE
5
106
100
AcDbEntity
8
0
100
AcDbCircle
10
32.678676249351746
20
-90.062749608457011
30
1.7763568394002505e-14
40
1.7500000000000027
210
-1.977525444370334e-17
220
2.2204460492503165e-16
230
1
0
CIRCLE
5
107
100
AcDbEntity
8
0
100
AcDbCircle
10
71.365245974099849
20
-86.606276145406156
30
0
40
1.7499999999999982
210
2.1395590863527732e-16
220
2.2204460492503165e-16
230
1
0
CIRCLE
5
108
100
AcDbEntity
8
0
100
AcDbCircle
10
-71.365245974099878
20
-86.606276145406156
30
0
40
1.7499999999999982
210
-2.3480792447636472e-16
220
2.2204460492503165e-16
230
1
0
CIRCLE
5
109
100
AcDbEntity
8
0
100
AcDbCircle
10
-32.678676249351788
20
-90.062749608457011
30
1.7763568394002505e-14
40
1.7500000000000027
210
-1.076761397384659e-18
220
2.2204460492503165e-16
230
1
0
CIRCLE
5
110
100
AcDbEntity
8
0
100
AcDbCircle
10
-57.454016295035004
20
-106.97967975611576
30
4.4408920985006262e-15
40
1.7499999999999893
210
-2.3480792447636502e-16
220
2.2204460492503165e-16
230
1
0
CIRCLE
5
111
100
AcDbEntity
8
0
100
AcDbCircle
10
-46.77611803906737
20
-69.416632903721052
30
0
40
1.7499999999999982
210
-2.3480792447636472e-16
220
2.2204460492503165e-16
230
1
0
CIRCLE
5
112
100
AcDbEntity
8
0
100
AcDbCircle
10
-46.77611803906737
20
69.416632903721052
30
-1.3322676295501878e-14
40
1.7499999999999982
210
-2.3480792447636472e-16
220
0
230
1
0
CIRCLE
5
113
100
AcDbEntity
8
0
100
AcDbCircle
10
-57.454016295035004
20
106.97967975611576
30
-1.7763568394002505e-14
40
1.7499999999999893
210
-2.3480792447636502e-16
220
0
230
1
0
CIRCLE
5
114
100
AcDbEntity
8
0
100
AcDbCircle
10
-32.678676249351788
20
90.062749608457011
30
-4.4408920985006262e-15
40
1.7500000000000027
210
-1.076761397384659e-18
220
0
230
1
0
CIRCLE
5
115
100
AcDbEntity
8
0
100
AcDbCircle
10
-71.365245974099878
20
86.606276145406156
30
-2.2204460492503131e-14
40
1.7499999999999982
210
-2.3480792447636472e-16
220
0
230
1
0
CIRCLE
5
116
100
AcDbEntity
8
0
100
AcDbCircle
10
71.365245974099849
20
86.606276145406156
30
-2.2204460492503131e-14
40
1.7499999999999982
210
2.1395590863527732e-16
220
0
230
1
0
CIRCLE
5
117
100
AcDbEntity
8
0
100
AcDbCircle
10
32.678676249351746
20
90.062749608457011
30
-4.4408920985006262e-15
40
1.7500000000000027
210
-1.977525444370334e-17
220
0
230
1
0
CIRCLE
5
118
100
AcDbEntity
8
0
100
AcDbCircle
10
57.454016295034968
20
106.97967975611576
30
-1.7763568394002505e-14
40
1.7499999999999893
210
2.1395590863527712e-16
220
0
230
1
0
CIRCLE
5
119
100
AcDbEntity
8
0
100
AcDbCircle
10
46.776118039067342
20
69.416632903721052
30
-8.8817841970012523e-15
40
1.7499999999999982
210
2.1395590863527732e-16
220
0
230
1
0
ENDSEC
0
SECTION
2
OBJECTS
0
DICTIONARY
5
C
100
AcDbDictionary
3
ACAD_GROUP
350
D
3
ACAD_MLINESTYLE
350
17
0
DICTIONARY
5
D
100
AcDbDictionary
0
DICTIONARY
5
1A
330
C
100
AcDbDictionary
0
DICTIONARY
5
17
100
AcDbDictionary
0
ENDSEC
0
EOF
