0
SECTION
2
HEADER
9
$INSUNITS
70
4
9
$ACADVER
1
AC1014
9
$HANDSEED
5
FFFF
0
ENDSEC
0
SECTION
2
TABLES
0
TABLE
2
VPORT
5
8
100
AcDbSymbolTable
0
ENDTAB
0
TABLE
2
LTYPE
5
5
100
AcDbSymbolTable
0
LTYPE
5
14
100
AcDbSymbolTableRecord
100
AcDbLinetypeTableRecord
2
BYBLOCK
70
0
0
LTYPE
5
15
100
AcDbSymbolTableRecord
100
AcDbLinetypeTableRecord
2
BYLAYER
70
0
0
ENDTAB
0
TABLE
2
LAYER
5
2
100
AcDbSymbolTable
70
2
0
LAYER
5
50
100
AcDbSymbolTableRecord
100
AcDbLayerTableRecord
2
0
70
0
6
CONTINUOUS
0
ENDTAB
0
TABLE
2
STYLE
5
3
100
AcDbSymbolTable
70
1
0
STYLE
5
11
100
AcDbSymbolTableRecord
100
AcDbTextStyleTableRecord
2
STANDARD
70
0
0
ENDTAB
0
TABLE
2
VIEW
5
6
100
AcDbSymbolTable
70
0
0
ENDTAB
0
TABLE
2
UCS
5
7
100
AcDbSymbolTable
70
0
0
ENDTAB
0
TABLE
2
APPID
5
9
100
AcDbSymbolTable
70
2
0
APPID
5
12
100
AcDbSymbolTableRecord
100
AcDbRegAppTableRecord
2
ACAD
70
0
0
ENDTAB
0
TABLE
2
DIMSTYLE
5
A
100
AcDbSymbolTable
70
1
0
ENDTAB
0
TABLE
2
BLOCK_RECORD
5
1
100
AcDbSymbolTable
70
1
0
BLOCK_RECORD
5
1F
100
AcDbSymbolTableRecord
100
AcDbBlockTableRecord
2
*MODEL_SPACE
0
BLOCK_RECORD
5
1B
100
AcDbSymbolTableRecord
100
AcDbBlockTableRecord
2
*PAPER_SPACE
0
ENDTAB
0
ENDSEC
0
SECTION
2
BLOCKS
0
BLOCK
5
20
100
AcDbEntity
100
AcDbBlockBegin
2
*MODEL_SPACE
0
ENDBLK
5
21
100
AcDbEntity
100
AcDbBlockEnd
0
BLOCK
5
1C
100
AcDbEntity
100
AcDbBlockBegin
2
*PAPER_SPACE
0
ENDBLK
5
1D
100
AcDbEntity
100
AcDbBlockEnd
0
ENDSEC
0
SECTION
2
ENTITIES
0
LWPOLYLINE
5
100
100
AcDbEntity
8
0
100
AcDbPolyline
90
4
70
1
43
0.0
10
13.829182220625828
20
11.654021585218018
10
6.8418100150952208
20
4.5002372956702299
42
-0.99999999999999989
10
4.3379855137535648
20
6.9458175676059239
10
11.325357719284039
20
14.099601857153869
42
-0.99999999999999989
0
LWPOLYLINE
5
101
100
AcDbEntity
8
0
100
AcDbPolyline
90
4
70
1
43
0.0
10
6.9458175676059657
20
-4.3379855137536243
42
0.99999999999999989
10
4.500237295670269
20
-6.8418100150952803
10
11.654021585217968
20
-13.829182220625835
42
0.9999999925494194
10
14.09960185715363
20
-11.325357719284249
0
LWPOLYLINE
5
102
100
AcDbEntity
8
0
100
AcDbPolyline
90
4
70
1
43
0.0
10
-4.3379855137536358
20
-6.9458175676059284
42
0.99999999999999989
10
-6.8418100150953078
20
-4.5002372956702477
10
-13.82918222062589
20
-11.654021585217929
42
0.99999999999999989
10
-11.325357719284259
20
-14.099601857153552
0
LWPOLYLINE
5
103
100
AcDbEntity
8
0
100
AcDbPolyline
90
18
70
1
43
0.0
10
-3.0321244587354363
20
-63.819901227275757
42
0.8520587848714043
10
4.5331325484692329
20
-63.730873842200779
42
-0.024365611666875949
10
5.4833860479883096
20
-58.954246591791673
10
19.934174864336555
20
-1.1798903093631541
42
0.19762984202659584
10
19.695232012817399
20
0.45488149038280218
10
16.946276701541841
20
5.0893985348809156
42
-0.17459367307967791
10
15.540821579344332
20
12.410590895304892
42
0.41544476369112127
10
13.031034603075554
20
15.842296109566449
42
-0.085020146492922846
10
9.5072577055206597
20
17.015790000442934
42
0.12638396055740117
10
8.4575946370900112
20
17.272290177183052
10
-8.8617142558026512
20
17.068477830745593
42
0.12638396055740034
10
-9.9050505269097293
20
16.7873473925371
42
-0.085020146492922735
10
-13.400236231183944
20
15.531254868754264
42
0.41544476369112027
10
-15.828571249720355
20
12.041438199989543
42
-0.17459367307967816
10
-17.061350517729291
20
4.6891992923363741
10
-19.700482356898949
20
-0.0087243633454237024
42
0.19762984202659659
10
-19.900888618234557
20
-1.6486663909653967
10
-4.0945212308103454
20
-59.066958696444587
42
-0.024365611666875949
0
LWPOLYLINE
5
104
100
AcDbEntity
8
0
100
AcDbPolyline
90
4
70
1
43
0.0
10
-6.9458175676059071
20
4.3379855137536083
10
-14.099601857153592
20
11.32535771928432
42
-0.99999999999999989
10
-11.65402158521778
20
13.829182220626171
10
-4.5002372956702281
20
6.841810015095275
42
-0.99999999999999989
0
CIRCLE
5
105
100
AcDbEntity
8
0
100
AcDbCircle
10
0.74334692952362502
20
-63.167199200818452
30
-2.2718925132650017e-16
40
1.7499999999999716
210
4.9303806576313238e-32
220
4.9303806576313238e-32
230
1
0
CIRCLE
5
106
100
AcDbEntity
8
0
100
AcDbCircle
10
0.40008178447150877
20
-33.997646015066032
30
-4.0233799340849493e-17
40
1.7499999999999716
210
4.9303806576313238e-32
220
4.9303806576313238e-32
230
1
0
CIRCLE
5
107
100
AcDbEntity
8
0
100
AcDbCircle
10
0
20
0
30
0
40
5
210
4.9303806576313227e-32
220
9.8607613152626454e-32
230
1
0
ENDSEC
0
SECTION
2
OBJECTS
0
DICTIONARY
5
C
100
AcDbDictionary
3
ACAD_GROUP
350
D
3
ACAD_MLINESTYLE
350
17
0
DICTIONARY
5
D
100
AcDbDictionary
0
DICTIONARY
5
1A
330
C
100
AcDbDictionary
0
DICTIONARY
5
17
100
AcDbDictionary
0
ENDSEC
0
EOF
